<svg width="24" height="24" xmlns="http://www.w3.org/2000/svg">
 <g>
    <path stroke="#4a5aef" d="M 5.67,22.63H0.81V8.7h4.86V22.63z " fill="none" stroke-width="1.5" stroke-linecap="round" stroke-linejoin="round"></path>
    <path stroke="#4a5aef" d="M 15.76,13.24c-1.182,0-2.14,0.958-2.14,2.14l0,0v7.25H8.51V8.7h5.11v1.59 c1.198-1.014,2.711-1.58,4.28-1.6c3.17,0,5.37,2.35,5.37,6.81v7.13H17.9v-7.25c0.006-1.182-0.948-2.144-2.13-2.15 c-0.003,0-0.007,0-0.01,0V13.24z " fill="none" stroke-width="1.5" stroke-linecap="round" stroke-linejoin="round"></path>
    <path stroke="#4a5aef" d="M 5.76,3.88c0,1.381-1.119,2.5-2.5,2.5s-2.5-1.119-2.5-2.5s1.119-2.5,2.5-2.5 c1.373,0.011,2.48,1.127,2.48,2.5L5.76,3.88z" fill="none" stroke-width="1.5" stroke-linecap="round" stroke-linejoin="round"></path>
 </g>
</svg>