<?xml version="1.0" encoding="UTF-8"?>
<svg width="678px" height="200px" viewBox="0 0 678 200" version="1.1" xmlns="http://www.w3.org/2000/svg" xmlns:xlink="http://www.w3.org/1999/xlink">
    <!-- Generator: Sketch 64 (93537) - https://sketch.com -->
    <title>playstore-button</title>
    <desc>Created with Sketch.</desc>
    <defs>
        <linearGradient x1="61.0301652%" y1="4.94958549%" x2="26.4625815%" y2="71.9258683%" id="linearGradient-1">
            <stop stop-color="#00A0FF" offset="0%"></stop>
            <stop stop-color="#00A1FF" offset="0.6569999%"></stop>
            <stop stop-color="#00BEFF" offset="26.01%"></stop>
            <stop stop-color="#00D2FF" offset="51.22%"></stop>
            <stop stop-color="#00DFFF" offset="76.04%"></stop>
            <stop stop-color="#00E3FF" offset="100%"></stop>
        </linearGradient>
        <linearGradient x1="107.630451%" y1="50.0004315%" x2="-130.551706%" y2="50.0004315%" id="linearGradient-2">
            <stop stop-color="#FFE000" offset="0%"></stop>
            <stop stop-color="#FFBD00" offset="40.87%"></stop>
            <stop stop-color="#FFA500" offset="77.54%"></stop>
            <stop stop-color="#FF9C00" offset="100%"></stop>
        </linearGradient>
        <linearGradient x1="86.243474%" y1="30.90425%" x2="-50.1292379%" y2="136.019454%" id="linearGradient-3">
            <stop stop-color="#FF3A44" offset="0%"></stop>
            <stop stop-color="#C31162" offset="100%"></stop>
        </linearGradient>
        <linearGradient x1="-18.8105628%" y1="-11.8250802%" x2="42.0848536%" y2="35.086648%" id="linearGradient-4">
            <stop stop-color="#32A071" offset="0%"></stop>
            <stop stop-color="#2DA771" offset="6.85%"></stop>
            <stop stop-color="#15CF74" offset="47.62%"></stop>
            <stop stop-color="#06E775" offset="80.09%"></stop>
            <stop stop-color="#00F076" offset="100%"></stop>
        </linearGradient>
    </defs>
    <g id="Page-1" stroke="none" stroke-width="1" fill="none" fill-rule="evenodd">
        <g id="playstore-button">
            <path d="M652.668329,200 L25.1122195,200 C11.2718204,200 0,188.72818 0,175 L0,25 C0,11.2219451 11.2718204,0 25.1122195,0 L652.668329,0 C666.496259,0 677.780549,11.2219451 677.780549,25 L677.780549,175 C677.780549,188.72818 666.496259,200 652.668329,200 Z" id="Path" fill="#000000" fill-rule="nonzero"></path>
            <path d="M652.668329,4.00249377 C664.276808,4.00249377 673.778055,13.4413965 673.778055,25 L673.778055,175 C673.778055,186.558603 664.339152,195.997506 652.668329,195.997506 L25.1122195,195.997506 C13.5037406,195.997506 4.00249377,186.558603 4.00249377,175 L4.00249377,25 C4.00249377,13.4413965 13.4413965,4.00249377 25.1122195,4.00249377 C25.1122195,4.00249377 652.668329,4.00249377 652.668329,4.00249377 Z M652.668329,0 L25.1122195,0 C11.2718204,0 0,11.2718204 0,25 L0,175 C0,188.778055 11.2718204,200 25.1122195,200 L652.668329,200 C666.496259,200 677.780549,188.778055 677.780549,175 L677.780549,25 C677.780549,11.2718204 666.496259,0 652.668329,0 Z" id="Shape" fill="#000000"></path>
            <path d="M357.057357,66.159601 C352.531172,66.159601 348.715711,64.5760599 345.698254,61.4588529 C342.705736,58.4289277 341.034913,54.2518703 341.109726,49.9875312 C341.109726,45.436409 342.65586,41.5835411 345.698254,38.5286783 C348.703242,35.4114713 352.518703,33.8279302 357.044888,33.8279302 C361.521197,33.8279302 365.336658,35.4114713 368.40399,38.5286783 C371.446384,41.6832918 372.992519,45.5361596 372.992519,49.9875312 C372.942643,54.5511222 371.396509,58.40399 368.40399,61.446384 C365.399002,64.5885287 361.583541,66.159601 357.057357,66.159601 Z M222.381546,66.159601 C217.955112,66.159601 214.114713,64.6009975 210.972569,61.521197 C207.855362,58.4538653 206.27182,54.5760599 206.27182,50 C206.27182,45.4239401 207.855362,41.5461347 210.972569,38.478803 C214.052369,35.3990025 217.892768,33.840399 222.381546,33.840399 C224.57606,33.840399 226.708229,34.276808 228.753117,35.1620948 C230.760599,36.0224439 232.394015,37.1945137 233.603491,38.6284289 L233.902743,38.9900249 L230.523691,42.3067332 L230.174564,41.8952618 C228.266833,39.6259352 225.710723,38.5162095 222.331671,38.5162095 C219.314214,38.5162095 216.683292,39.5885287 214.513716,41.7082294 C212.331671,43.840399 211.221945,46.6334165 211.221945,50.0124688 C211.221945,53.3915212 212.331671,56.1845387 214.513716,58.3167082 C216.683292,60.436409 219.314214,61.5087282 222.331671,61.5087282 C225.548628,61.5087282 228.254364,60.436409 230.361596,58.3167082 C231.608479,57.0698254 232.381546,55.3241895 232.65586,53.117207 L221.820449,53.117207 L221.820449,48.4538653 L237.306733,48.4538653 L237.369077,48.8778055 C237.481297,49.6633416 237.593516,50.4738155 237.593516,51.2219451 C237.593516,55.5236908 236.296758,59.0024938 233.72818,61.5710723 C230.810474,64.6134663 226.995012,66.159601 222.381546,66.159601 Z M401.446384,65.4987531 L396.670823,65.4987531 L382.044888,42.0947631 L382.169576,46.3092269 L382.169576,65.4862843 L377.394015,65.4862843 L377.394015,34.5012469 L382.842893,34.5012469 L382.992519,34.7381546 L396.745636,56.7830424 L396.620948,52.5810474 L396.620948,34.5012469 L401.446384,34.5012469 L401.446384,65.4987531 L401.446384,65.4987531 Z M321.17207,65.4987531 L316.334165,65.4987531 L316.334165,39.1645885 L307.942643,39.1645885 L307.942643,34.5012469 L329.551122,34.5012469 L329.551122,39.1645885 L321.159601,39.1645885 L321.159601,65.4987531 L321.17207,65.4987531 Z M304.002494,65.4987531 L299.177057,65.4987531 L299.177057,34.5012469 L304.002494,34.5012469 L304.002494,65.4987531 Z M276.882793,65.4987531 L272.057357,65.4987531 L272.057357,39.1645885 L263.665835,39.1645885 L263.665835,34.5012469 L285.274314,34.5012469 L285.274314,39.1645885 L276.882793,39.1645885 L276.882793,65.4987531 Z M260.610973,65.4488778 L242.107232,65.4488778 L242.107232,34.5012469 L260.610973,34.5012469 L260.610973,39.1645885 L246.945137,39.1645885 L246.945137,47.6683292 L259.276808,47.6683292 L259.276808,52.2817955 L246.945137,52.2817955 L246.945137,60.7855362 L260.610973,60.7855362 L260.610973,65.4488778 Z M349.239401,58.2543641 C351.396509,60.4114713 354.014963,61.4962594 357.057357,61.4962594 C360.187032,61.4962594 362.743142,60.436409 364.875312,58.2543641 C366.995012,56.1346633 368.067332,53.3541147 368.067332,50 C368.067332,46.6458853 366.995012,43.8528678 364.887781,41.7456359 C362.730673,39.5885287 360.099751,38.5037406 357.069825,38.5037406 C353.94015,38.5037406 351.38404,39.563591 349.264339,41.7456359 C347.144638,43.8653367 346.072319,46.6458853 346.072319,50 C346.072319,53.3541147 347.13217,56.1471322 349.239401,58.2543641 L349.239401,58.2543641 Z" id="Shape" fill="#FFFFFF" fill-rule="nonzero"></path>
            <path d="M340.660848,108.778055 C328.877805,108.778055 319.326683,117.718204 319.326683,130.049875 C319.326683,142.269327 328.94015,151.321696 340.660848,151.321696 C352.44389,151.321696 361.995012,142.319202 361.995012,130.049875 C361.995012,117.718204 352.44389,108.778055 340.660848,108.778055 Z M340.660848,142.892768 C334.214464,142.892768 328.665835,137.55611 328.665835,130 C328.665835,122.331671 334.226933,117.107232 340.660848,117.107232 C347.107232,117.107232 352.655881,122.331671 352.655881,130 C352.668329,137.605985 347.107232,142.892768 340.660848,142.892768 Z M294.114713,108.778055 C282.331671,108.778055 272.780549,117.718204 272.780549,130.049875 C272.780549,142.269327 282.394015,151.321696 294.114713,151.321696 C305.897756,151.321696 315.448878,142.319202 315.448878,130.049875 C315.448878,117.718204 305.885287,108.778055 294.114713,108.778055 Z M294.114713,142.892768 C287.668329,142.892768 282.119701,137.55611 282.119701,130 C282.119701,122.331671 287.680798,117.107232 294.114713,117.107232 C300.561097,117.107232 306.109726,122.331671 306.109726,130 C306.109726,137.605985 300.561097,142.892768 294.114713,142.892768 Z M238.72818,115.274314 L238.72818,124.276808 L260.336658,124.276808 C259.67581,129.326683 258.004988,133.054863 255.448878,135.610973 C252.281796,138.778055 247.394015,142.219451 238.778055,142.219451 C225.498753,142.219451 215.112219,131.496259 215.112219,118.216958 C215.112219,104.937656 225.498753,94.2144638 238.778055,94.2144638 C245.947631,94.2144638 251.17207,97.0448878 255.049875,100.660848 L261.433915,94.276808 C256.047382,89.1147132 248.877805,85.1620948 238.82793,85.1620948 C220.610973,85.1620948 205.32419,100 205.32419,118.167082 C205.32419,136.38404 220.598504,151.17207 238.82793,151.17207 C248.665835,151.17207 256.047382,147.955112 261.882793,141.895262 C267.830424,135.947631 269.713217,127.55611 269.713217,120.785536 C269.713217,118.678304 269.551122,116.783042 269.214464,115.174564 L238.715711,115.174564 C238.72818,115.162095 238.72818,115.274314 238.72818,115.274314 Z M465.274314,122.281796 C463.491272,117.506234 458.104738,108.72818 447.057357,108.72818 C436.109726,108.72818 427.007481,117.34414 427.007481,130 C427.007481,141.945137 436.009975,151.27182 448.117207,151.27182 C457.842893,151.27182 463.503741,145.32419 465.835411,141.832918 L458.61596,136.995012 C456.221945,140.548628 452.892768,142.880299 448.167082,142.880299 C443.391521,142.880299 440.049875,140.710723 437.830424,136.433915 L466.27182,124.650873 C466.27182,124.663342 465.274314,122.281796 465.274314,122.281796 Z M436.27182,129.389027 C436.047382,121.17207 442.65586,116.995012 447.381546,116.995012 C451.109726,116.995012 454.214464,118.82793 455.274314,121.496259 L436.27182,129.389027 Z M413.167082,150 L422.506234,150 L422.506234,87.5062344 L413.167082,87.5062344 L413.167082,150 Z M397.830424,113.503741 L397.493766,113.503741 C395.386534,110.997506 391.38404,108.72818 386.27182,108.72818 C375.660848,108.72818 365.885287,118.067332 365.885287,130.062344 C365.885287,142.007481 375.610973,151.234414 386.27182,151.234414 C391.321696,151.234414 395.386534,148.952618 397.493766,146.396509 L397.830424,146.396509 L397.830424,149.451372 C397.830424,157.568579 393.491272,161.945137 386.496259,161.945137 C380.773067,161.945137 377.219451,157.830424 375.773067,154.389027 L367.65586,157.780549 C369.987531,163.391521 376.209476,170.336658 386.483791,170.336658 C397.431421,170.336658 406.708229,163.890274 406.708229,148.167082 L406.708229,110 L397.880299,110 L397.880299,113.503741 C397.892768,113.503741 397.830424,113.503741 397.830424,113.503741 Z M387.107232,142.892768 C380.660848,142.892768 375.274314,137.506234 375.274314,130.062344 C375.274314,122.55611 380.660848,117.119701 387.107232,117.119701 C393.491272,117.119701 398.441397,122.618454 398.441397,130.062344 C398.503741,137.506234 393.503741,142.892768 387.107232,142.892768 Z M509.002494,87.5062344 L486.670823,87.5062344 L486.670823,150 L496.009975,150 L496.009975,126.334165 L509.014963,126.334165 C519.351621,126.334165 529.513716,118.840399 529.513716,106.945137 C529.513716,95.0498753 519.389027,87.5062344 509.002494,87.5062344 Z M509.276808,117.605985 L495.997506,117.605985 L495.997506,96.159601 L509.276808,96.159601 C516.27182,96.159601 520.224439,101.932668 520.224439,106.882793 C520.224439,111.783042 516.221945,117.605985 509.276808,117.605985 Z M566.945137,108.665835 C560.162095,108.665835 553.167082,111.670823 550.274314,118.216958 L558.553616,121.658354 C560.336658,118.216958 563.603491,117.044888 567.057357,117.044888 C571.895262,117.044888 576.783042,119.937656 576.895262,125.099751 L576.895262,125.760599 C575.224439,124.812968 571.558603,123.366584 567.169576,123.366584 C558.229426,123.366584 549.164589,128.254364 549.164589,137.418953 C549.164589,145.810474 556.496259,151.197007 564.663342,151.197007 C570.935162,151.197007 574.389027,148.366584 576.546135,145.087282 L576.882793,145.087282 L576.882793,149.925187 L585.885287,149.925187 L585.885287,125.985037 C585.885287,114.837905 577.605985,108.665835 566.945137,108.665835 Z M565.773067,142.892768 C562.718204,142.892768 558.441397,141.396509 558.441397,137.55611 C558.441397,132.718204 563.778055,130.885287 568.329177,130.885287 C572.44389,130.885287 574.389027,131.770574 576.832918,132.992519 C576.159601,138.603491 571.421446,142.842893 565.773067,142.892768 Z M618.72818,110 L608.004988,137.107232 L607.668329,137.107232 L596.558603,110 L586.508728,110 L603.179551,147.892768 L593.678304,168.952618 L603.40399,168.952618 L629.052369,110 C629.052369,110 618.72818,110 618.72818,110 Z M534.663342,150 L544.002494,150 L544.002494,87.5062344 L534.663342,87.5062344 L534.663342,150 Z" id="Shape" fill="#FFFFFF"></path>
            <path d="M52.1695761,37.6683292 C50.723192,39.2269327 49.8877805,41.6084788 49.8877805,44.7256858 L49.8877805,155.286783 C49.8877805,158.40399 50.723192,160.785536 52.2194514,162.281796 L52.605985,162.618454 L114.551122,100.673317 L114.551122,99.2892768 L52.5561097,37.3316708 C52.5561097,37.3316708 52.1695761,37.6683292 52.1695761,37.6683292 Z" id="Path" fill="url(#linearGradient-1)"></path>
            <path d="M135.162095,121.38404 L114.501247,100.723192 L114.501247,99.276808 L135.162095,78.6159601 L135.610973,78.8902743 L160.049875,92.7805486 C167.044888,96.7206983 167.044888,103.229426 160.049875,107.219451 L135.610973,121.109726 C135.610973,121.109726 135.162095,121.38404 135.162095,121.38404 Z" id="Path" fill="url(#linearGradient-2)"></path>
            <path d="M135.610973,121.109726 L114.501247,100 L52.1695761,162.331671 C54.4513716,164.775561 58.2793017,165.049875 62.5561097,162.668329 L135.610973,121.109726" id="Path" fill="url(#linearGradient-3)"></path>
            <path d="M135.610973,78.8902743 L62.5561097,37.394015 C58.2793017,34.9501247 54.4389027,35.286783 52.1695761,37.7306733 L114.501247,100 L135.610973,78.8902743 Z" id="Path" fill="url(#linearGradient-4)"></path>
            <path d="M135.162095,120.660848 L62.605985,161.882793 C58.553616,164.214464 54.9376559,164.052369 52.605985,161.932668 L52.2194514,162.319202 L52.605985,162.65586 C54.9376559,164.763092 58.553616,164.937656 62.605985,162.605985 L135.660848,121.109726 C135.660848,121.109726 135.162095,120.660848 135.162095,120.660848 Z" id="Path" fill="#000000" fill-rule="nonzero" opacity="0.2"></path>
            <path d="M160.049875,106.496259 L135.099751,120.660848 L135.548628,121.109726 L159.987531,107.219451 C163.491272,105.224439 165.21197,102.605985 165.21197,100 C165,102.394015 163.216958,104.663342 160.049875,106.496259 Z" id="Path" fill="#000000" fill-rule="nonzero" opacity="0.12"></path>
            <path d="M62.5561097,38.117207 L160.049875,93.5037406 C163.216958,95.286783 165,97.6184539 165.274314,100 C165.274314,97.394015 163.553616,94.7755611 160.049875,92.7805486 L62.5561097,37.394015 C55.5610973,33.3915212 49.8877805,36.7331671 49.8877805,44.7256858 L49.8877805,45.4488778 C49.8877805,37.4438903 55.5610973,34.1645885 62.5561097,38.117207 Z" id="Path" fill="#FFFFFF" opacity="0.25"></path>
        </g>
    </g>
</svg>