<?xml version="1.0" encoding="UTF-8"?>
<svg width="30px" height="30px" viewBox="0 5 30 15" version="1.1" xmlns="http://www.w3.org/2000/svg" xmlns:xlink="http://www.w3.org/1999/xlink">
    <g stroke="none" stroke-width="1" fill="#2E79FD" fill-rule="evenodd">
        <path d="M12,4.645c-4.062,0-7.355,3.293-7.355,7.355S7.938,19.355,12,19.355s7.355-3.293,7.355-7.355l0,0 C19.351,7.94,16.06,4.649,12,4.645z M12,17.355c-2.957,0-5.355-2.398-5.355-5.355S9.043,6.645,12,6.645S17.355,9.043,17.355,12v0 C17.352,14.956,14.956,17.352,12,17.355z M12,3.467c0.552,0,1-0.448,1-1V1c0-0.552-0.448-1-1-1s-1,0.448-1,1v1.467 C11,3.019,11.448,3.467,12,3.467z M4.552,5.966c0.384,0.397,1.017,0.408,1.414,0.025c0.397-0.384,0.408-1.017,0.025-1.414 C5.983,4.568,5.974,4.56,5.966,4.552L4.929,3.515C4.532,3.131,3.899,3.142,3.515,3.54c-0.374,0.388-0.374,1.002,0,1.389 L4.552,5.966z M2.467,11H1c-0.552,0-1,0.448-1,1s0.448,1,1,1h1.467c0.552,0,1-0.448,1-1S3.019,11,2.467,11z M4.552,18.034 l-1.037,1.037c-0.397,0.384-0.408,1.017-0.025,1.414s1.017,0.408,1.414,0.025c0.008-0.008,0.017-0.016,0.025-0.025l1.037-1.037 c0.397-0.384,0.408-1.017,0.025-1.414c-0.384-0.397-1.017-0.408-1.414-0.025C4.568,18.017,4.56,18.026,4.552,18.034z M12,20.533 c-0.552,0-1,0.448-1,1V23c0,0.552,0.448,1,1,1s1-0.448,1-1v-1.467C13,20.981,12.552,20.533,12,20.533z M19.448,18.034 c-0.397-0.384-1.03-0.373-1.414,0.025c-0.374,0.388-0.374,1.002,0,1.389l1.037,1.037c0.397,0.384,1.03,0.373,1.414-0.025 c0.374-0.388,0.374-1.002,0-1.389L19.448,18.034z M23,11h-1.467c-0.552,0-1,0.448-1,1s0.448,1,1,1H23c0.552,0,1-0.448,1-1 S23.552,11,23,11z M18.741,6.259c0.265,0,0.52-0.105,0.707-0.293l1.037-1.037c0.384-0.397,0.373-1.03-0.025-1.414 c-0.388-0.374-1.002-0.374-1.389,0l-1.037,1.037c-0.39,0.391-0.39,1.024,0,1.414C18.222,6.154,18.476,6.259,18.741,6.259z" />    
    </g>
</svg>