<?xml version="1.0" encoding="UTF-8"?>
<svg width="30px" height="30px" viewBox="0 5 30 15" version="1.1" xmlns="http://www.w3.org/2000/svg" xmlns:xlink="http://www.w3.org/1999/xlink">
    <g stroke="none" stroke-width="1" fill="#F42D97" fill-rule="evenodd">
        <path d="M7.456,15.4l.59-.786a.251.251,0,0,0,0-.3,5,5,0,1,1,7.913-.014.251.251,0,0,0,0,.3l.6.8a2.284,2.284,0,0,1,.254.432.251.251,0,0,0,.19.145.248.248,0,0,0,.225-.081,7,7,0,1,0-10.446.018.25.25,0,0,0,.415-.066,2.255,2.255,0,0,1,.26-.446Z" />
        <path d="M1.744,12.25h1.5a1,1,0,0,0,0-2h-1.5a1,1,0,0,0,0,2Z" />
        <path d="M5.1,5.77A1,1,0,1,0,6.514,4.355L5.453,3.3A1,1,0,0,0,4.039,4.709Z" />
        <path d="M11.994,3.5a1,1,0,0,0,1-1V1a1,1,0,0,0-2,0V2.5A1,1,0,0,0,11.994,3.5Z" />
        <path d="M4.039,19.2a1,1,0,0,0,1.414,0l1.061-1.06A1,1,0,1,0,5.1,16.73L4.039,17.791A1,1,0,0,0,4.039,19.2Z" />
        <path d="M19.744,11.25a1,1,0,0,0,1,1h1.5a1,1,0,0,0,0-2h-1.5A1,1,0,0,0,19.744,11.25Z" />
        <path d="M18.182,6.063a1,1,0,0,0,.707-.293l1.06-1.061A1,1,0,1,0,18.535,3.3l-1.06,1.06a1,1,0,0,0,.707,1.708Z" />
        <path d="M18.889,16.73a1,1,0,0,0-1.414,1.415l1.06,1.06a1,1,0,0,0,1.414-1.414Z" />
        <path d="M23.994,23a1,1,0,0,0-1-1H1.006a1,1,0,0,0,0,2H22.994A1,1,0,0,0,23.994,23Z" />
        <path d="M13.006,17.75a.25.25,0,0,1,.25-.25h1.5a.749.749,0,0,0,.6-1.2L12.6,12.631a.772.772,0,0,0-1.2,0L8.655,16.3h0a.75.75,0,0,0,.6,1.2h1.5a.25.25,0,0,1,.25.25V20a1,1,0,0,0,2,0Z" />
    </g>
</svg>