<?xml version="1.0" encoding="UTF-8"?>
<svg width="30px" height="30px" viewBox="0 5 30 15" version="1.1" xmlns="http://www.w3.org/2000/svg" xmlns:xlink="http://www.w3.org/1999/xlink">
    <g stroke="none" stroke-width="1" fill="#2C3199" fill-rule="evenodd">
       <path d="M7.865,14.478a.25.25,0,0,0,.049-.341,5,5,0,1,1,8.168-.011.249.249,0,0,0,.051.341,2.289,2.289,0,0,1,.792,1.183.25.25,0,0,0,.432.093,7,7,0,1,0-10.707.022.25.25,0,0,0,.432-.1,2.266,2.266,0,0,1,.783-1.191Z" />
        <path d="M1.744,12.25h1.5a1,1,0,0,0,0-2h-1.5a1,1,0,0,0,0,2Z" />
        <path d="M5.1,5.77A1,1,0,1,0,6.514,4.355L5.453,3.3A1,1,0,0,0,4.039,4.709Z" />
        <path d="M11.994,3.5a1,1,0,0,0,1-1V1a1,1,0,0,0-2,0V2.5A1,1,0,0,0,11.994,3.5Z" />
        <path d="M4.039,19.2a1,1,0,0,0,1.414,0l1.061-1.06A1,1,0,1,0,5.1,16.73L4.039,17.791A1,1,0,0,0,4.039,19.2Z" />
        <path d="M19.744,11.25a1,1,0,0,0,1,1h1.5a1,1,0,0,0,0-2h-1.5A1,1,0,0,0,19.744,11.25Z" />
        <path d="M18.182,6.063a1,1,0,0,0,.707-.293l1.06-1.061A1,1,0,1,0,18.535,3.3l-1.06,1.06a1,1,0,0,0,.707,1.708Z" />
        <path d="M18.889,16.73a1,1,0,0,0-1.414,1.415l1.06,1.06a1,1,0,0,0,1.414-1.414Z" />
        <path d="M11.408,20.369a.75.75,0,0,0,1.2,0l2.75-3.667a.749.749,0,0,0-.6-1.2h-1.5a.25.25,0,0,1-.25-.25V13a1,1,0,0,0-2,0v2.25a.25.25,0,0,1-.25.25h-1.5a.75.75,0,0,0-.6,1.2h0Z" />
        <path d="M22.994,22H1.006a1,1,0,0,0,0,2H22.994a1,1,0,0,0,0-2Z" />
    </g>
</svg>