<?xml version="1.0" encoding="UTF-8"?>
<svg width="640px" height="200px" viewBox="0 0 640 200" version="1.1" xmlns="http://www.w3.org/2000/svg" xmlns:xlink="http://www.w3.org/1999/xlink">
    <!-- Generator: Sketch 64 (93537) - https://sketch.com -->
    <title>app-store-button</title>
    <desc>Created with Sketch.</desc>
    <g id="Page-1" stroke="none" stroke-width="1" fill="none" fill-rule="evenodd">
        <g id="app-store-button" fill-rule="nonzero">
            <path d="M620,200 L20,200 C9,200 -5.68434189e-14,191 -5.68434189e-14,180 L-5.68434189e-14,20 C-5.68434189e-14,9 9,0 20,0 L620,0 C631,0 640,9 640,20 L640,180 C640,191 631,200 620,200 Z" id="Path" fill="#000000"></path>
            <path d="M135,99 C135,83.5 148,76 148.5,75.5 C141,65 130,63.5 126,63 C116.5,62 107,68.5 102.5,68.5 C97.5,68.5 90,63 82,63 C71.5,63 62,69 56.5,78.5 C45.5,97.5 53.5,125.5 64,141 C69.5,148.5 75.5,157 83.5,156.5 C91.5,156 94.5,151.5 104,151.5 C113.5,151.5 116,156.5 124.5,156.5 C133,156.5 138.5,149 143.5,141.5 C149.5,133 152,124.5 152,124 C151.5,123.5 135,117.5 135,99 Z" id="Path" fill="#FFFFFF"></path>
            <path d="M119.5,53 C123.5,47.5 126.5,40.5 126,33 C120,33.5 112,37 108,42.5 C104,47 100.5,54.5 101.5,61.5 C108,62 115,58 119.5,53 Z" id="Path" fill="#FFFFFF"></path>
            <path d="M249,155.5 L238,155.5 L232,136.5 L211,136.5 L205.5,155.5 L195,155.5 L216,91 L229,91 L249,155.5 Z M230,128.5 L224.5,111.5 C224,110 223,105.5 221,99.5 L221,99.5 C220.5,102 219.5,106.5 218,111.5 L212.5,128.5 L230,128.5 Z" id="Shape" fill="#FFFFFF"></path>
            <path d="M302.5,132 C302.5,140 300.5,146 296,151 C292,155 287.5,157 281.5,157 C275.5,157 271,155 268.5,150.5 L268.5,150.5 L268.5,175 L258,175 L258,125 C258,120 258,115 257.5,109.5 L266.5,109.5 L267,117 L267,117 C270.5,111.5 275.5,108.5 282.5,108.5 C288,108.5 292.5,110.5 296,115 C300.5,119 302.5,124.5 302.5,132 Z M292,132 C292,127.5 291,123.5 289,121 C287,118 284,116.5 280,116.5 C277.5,116.5 275,117.5 273,119 C271,120.5 269.5,123 269,125.5 C268.5,127 268.5,128 268.5,128.5 L268.5,136.5 C268.5,140 269.5,142.5 271.5,145 C273.5,147.5 276.5,148.5 279.5,148.5 C283.5,148.5 286.5,147 288.5,144 C291,141 292,137 292,132 Z" id="Shape" fill="#FFFFFF"></path>
            <path d="M356,132 C356,140 354,146 349.5,151 C345.5,155 341,157 335,157 C329,157 324.5,155 322,150.5 L322,150.5 L322,175 L311.5,175 L311.5,125 C311.5,120 311.5,115 311,109.5 L320,109.5 L320.5,117 L320.5,117 C324,111.5 329,108.5 336,108.5 C341.5,108.5 346,110.5 349.5,115 C354,119 356,124.5 356,132 Z M345.5,132 C345.5,127.5 344.5,123.5 342.5,121 C340.5,118 337.5,116.5 333.5,116.5 C331,116.5 328.5,117.5 326.5,119 C324.5,120.5 323,123 322.5,125.5 C322,127 322,128 322,128.5 L322,136.5 C322,140 323,142.5 325,145 C327,147.5 330,148.5 333,148.5 C337,148.5 340,147 342,144 C344.5,141 345.5,137 345.5,132 Z" id="Shape" fill="#FFFFFF"></path>
            <path d="M416,137.5 C416,143 414,147.5 410.5,151 C406.5,155 400.5,156.5 393,156.5 C386,156.5 380.5,155 376.5,152.5 L379,144 C383.5,146.5 388.5,148 394,148 C398,148 401,147 403,145.5 C405,143.5 406,141.5 406,138.5 C406,136 405,133.5 403.5,132 C401.5,130 398.5,128.5 394.5,127 C383,123 377.5,116.5 377.5,108.5 C377.5,103 379.5,99 383.5,95.5 C387.5,92 392.5,90.5 399.5,90.5 C405.5,90.5 410,91.5 414,93.5 L411.5,102 C408,100 404,99 399,99 C395.5,99 392.5,100 390.5,101.5 C389,103 388,105 388,107.5 C388,110 389,112 391,114 C392.5,115.5 396,117 400.5,119 C406,121 410,124 413,127 C414.5,129.5 416,133 416,137.5 Z" id="Path" fill="#FFFFFF"></path>
            <path d="M450,117 L438.5,117 L438.5,139.5 C438.5,145 440.5,148 444.5,148 C446.5,148 448,148 449,147.5 L449.5,155.5 C447.5,156.5 445,156.5 441.5,156.5 C437.5,156.5 434,155.5 432,153 C429.5,150.5 428.5,146.5 428.5,140.5 L428.5,117 L421.5,117 L421.5,109 L428.5,109 L428.5,100.5 L438.5,97.5 L438.5,109 L450,109 L450,117 Z" id="Path" fill="#FFFFFF"></path>
            <path d="M501.5,132 C501.5,139 499.5,145 495.5,149.5 C491,154 485.5,156.5 478.5,156.5 C471.5,156.5 466,154 462,149.5 C458,145 456,139.5 456,132.5 C456,125.5 458,119.5 462.5,115 C466.5,110.5 472.5,108 479.5,108 C486.5,108 492,110.5 496,115 C499.5,119.5 501.5,125 501.5,132 Z M490.5,132.5 C490.5,128 489.5,124.5 487.5,121.5 C485.5,118 482,116 478,116 C474,116 470.5,118 468.5,121.5 C466.5,124.5 465.5,128.5 465.5,132.5 C465.5,137 466.5,140.5 468.5,143.5 C470.5,147 474,149 478,149 C482,149 485,147 487.5,143.5 C489.5,140.5 490.5,136.5 490.5,132.5 Z" id="Shape" fill="#FFFFFF"></path>
            <path d="M535,118 C534,118 533,117.5 531.5,117.5 C528,117.5 525,119 523,121.5 C521.5,124 520.5,127 520.5,130.5 L520.5,155 L510,155 L510,123 C510,117.5 510,113 509.5,108.5 L518.5,108.5 L519,117.5 L519.5,117.5 C520.5,114.5 522.5,112 524.5,110 C527,108.5 529.5,107.5 532,107.5 C533,107.5 534,107.5 534.5,107.5 L534.5,118 L535,118 Z" id="Path" fill="#FFFFFF"></path>
            <path d="M581,130 C581,132 581,133.5 580.5,134.5 L549.5,134.5 C549.5,139 551,142.5 554,145 C556.5,147 560,148.5 564,148.5 C568.5,148.5 573,148 576.5,146.5 L578,153.5 C573.5,155.5 568.5,156.5 562.5,156.5 C555.5,156.5 549.5,154.5 545.5,150 C541.5,146 539.5,140 539.5,133 C539.5,126 541.5,120 545,115.5 C549,110.5 554.5,108 561.5,108 C568,108 573.5,110.5 576.5,115.5 C580,119.5 581,124.5 581,130 Z M571.5,127.5 C571.5,124.5 571,122 569.5,119.5 C567.5,116.5 565,115 561.5,115 C558,115 555.5,116.5 553.5,119 C552,121 551,124 550.5,127 L571.5,127 L571.5,127.5 Z" id="Shape" fill="#FFFFFF"></path>
            <path d="M227,51.5 C227,57 225.5,61.5 222,64.5 C219,67 214.5,68.5 208.5,68.5 C205.5,68.5 203,68.5 201,68 L201,37 C203.5,36.5 206.5,36.5 210,36.5 C215.5,36.5 219.5,37.5 222.5,40 C225,42.5 227,46.5 227,51.5 Z M221.5,51.5 C221.5,48 220.5,45 218.5,43 C216.5,41 213.5,40 210,40 C208.5,40 207,40 206,40.5 L206,64 C206.5,64 208,64 209.5,64 C213.5,64 216.5,63 218.5,61 C220.5,59 221.5,55.5 221.5,51.5 Z" id="Shape" fill="#FFFFFF"></path>
            <path d="M255,56.5 C255,60 254,63 252,65 C250,67.5 247,68.5 243.5,68.5 C240,68.5 237.5,67.5 235.5,65 C233.5,63 232.5,60 232.5,56.5 C232.5,53 233.5,50 235.5,48 C237.5,45.5 240.5,44.5 244,44.5 C247.5,44.5 250,45.5 252,48 C254,50 255,53 255,56.5 Z M250,56.5 C250,54.5 249.5,52.5 248.5,51 C247.5,49 246,48.5 244,48.5 C242,48.5 240.5,49.5 239.5,51 C238.5,52.5 238,54.5 238,56.5 C238,58.5 238.5,60.5 239.5,62 C240.5,64 242,64.5 244,64.5 C246,64.5 247.5,63.5 248.5,61.5 C249.5,60.5 250,58.5 250,56.5 Z" id="Shape" fill="#FFFFFF"></path>
            <path d="M293.5,45 L286.5,68 L282,68 L279,58 C278,55.5 277.5,53 277,50.5 L277,50.5 C276.5,53 276,55.5 275,58 L272,68 L267.5,68 L260,45 L265,45 L267.5,56 C268,58.5 268.5,61 269,63.5 L269,63.5 C269.5,61.5 270,59 271,56 L274,45 L278,45 L281,55.5 C282,58 282.5,60.5 283,63 L283,63 C283.5,60.5 284,58 284.5,55.5 L287.5,45 L293.5,45 Z" id="Path" fill="#FFFFFF"></path>
            <path d="M319.5,68 L314.5,68 L314.5,55 C314.5,51 313,49 310,49 C308.5,49 307.5,49.5 306.5,50.5 C305.5,51.5 305,53 305,54.5 L305,68 L300,68 L300,51.5 C300,49.5 300,47.5 300,45 L304.5,45 L304.5,48.5 L304.5,48.5 C305,47.5 306,46.5 307,45.5 C308.5,44.5 310,44 311.5,44 C313.5,44 315.5,44.5 317,46 C319,47.5 319.5,50 319.5,53.5 L319.5,68 Z" id="Path" fill="#FFFFFF"></path>
            <polygon id="Path" fill="#FFFFFF" points="333.5 68 328.5 68 328.5 34.5 333.5 34.5"></polygon>
            <path d="M363.5,56.5 C363.5,60 362.5,63 360.5,65 C358.5,67.5 355.5,68.5 352,68.5 C348.5,68.5 346,67.5 344,65 C342,63 341,60 341,56.5 C341,53 342,50 344,48 C346,46 349,44.5 352.5,44.5 C356,44.5 358.5,45.5 360.5,48 C362.5,50 363.5,53 363.5,56.5 Z M358.5,56.5 C358.5,54.5 358,52.5 357,51 C356,49 354.5,48.5 352.5,48.5 C350.5,48.5 349,49.5 348,51 C347,52.5 346.5,54.5 346.5,56.5 C346.5,58.5 347,60.5 348,62 C349,64 350.5,64.5 352.5,64.5 C354.5,64.5 356,63.5 357,61.5 C358,60.5 358.5,58.5 358.5,56.5 Z" id="Shape" fill="#FFFFFF"></path>
            <path d="M388,68 L383.5,68 L383,65.5 L383,65.5 C381.5,67.5 379,68.5 376.5,68.5 C374.5,68.5 372.5,68 371.5,66.5 C370.5,65 369.5,63.5 369.5,62 C369.5,59 370.5,57 373,55.5 C375.5,54 378.5,53.5 383,53.5 L383,53 C383,50 381.5,48.5 378.5,48.5 C376,48.5 374.5,49 372.5,50 L371.5,46.5 C373.5,45 376,44.5 379.5,44.5 C385.5,44.5 388.5,47.5 388.5,54 L388.5,62.5 C388,65 388,66.5 388,68 Z M383,60 L383,56.5 C377.5,56.5 374.5,58 374.5,61 C374.5,62 375,63 375.5,63.5 C376,64 377,64.5 378,64.5 C379,64.5 380,64 381,63.5 C382,63 382.5,62 383,61 C383,61 383,60.5 383,60 Z" id="Shape" fill="#FFFFFF"></path>
            <path d="M417,68 L412.5,68 L412.5,64.5 L412.5,64.5 C411,67.5 408.5,68.5 405,68.5 C402,68.5 400,67.5 398,65.5 C396,63.5 395.5,60.5 395.5,57 C395.5,53.5 396.5,50.5 398.5,48 C400.5,46 403,45 405.5,45 C408.5,45 410.5,46 412,48 L412,48 L412,35 L417,35 L417,62 C417,64 417,66 417,68 Z M412,58.5 L412,54.5 C412,54 412,53.5 412,53 C411.5,52 411,51 410,50 C409,49 408,49 406.5,49 C404.5,49 403,50 402,51.5 C401,53 400.5,55 400.5,57.5 C400.5,60 401,61.5 402,63 C403,64.5 404.5,65.5 406.5,65.5 C408,65.5 409.5,65 410.5,63.5 C411.5,61.5 412,60 412,58.5 Z" id="Shape" fill="#FFFFFF"></path>
            <path d="M460.5,56.5 C460.5,60 459.5,63 457.5,65 C455.5,67.5 452.5,68.5 449,68.5 C445.5,68.5 443,67.5 441,65 C439,63 438,60 438,56.5 C438,53 439,50 441,48 C443,45.5 446,44.5 449.5,44.5 C453,44.5 455.5,45.5 457.5,48 C459.5,50 460.5,53 460.5,56.5 Z M455,56.5 C455,54.5 454.5,52.5 453.5,51 C452.5,49 451,48.5 449,48.5 C447,48.5 445.5,49.5 444.5,51 C443.5,52.5 443,54.5 443,56.5 C443,58.5 443.5,60.5 444.5,62 C445.5,64 447,64.5 449,64.5 C451,64.5 452.5,63.5 453.5,61.5 C454.5,60.5 455,58.5 455,56.5 Z" id="Shape" fill="#FFFFFF"></path>
            <path d="M488,68 L483,68 L483,55 C483,51 481.5,49 478.5,49 C477,49 476,49.5 475,50.5 C474,51.5 473.5,53 473.5,54.5 L473.5,68 L468.5,68 L468.5,51.5 C468.5,49.5 468.5,47.5 468.5,45 L473,45 L473,48.5 L473,48.5 C473.5,47.5 474.5,46.5 475.5,45.5 C477,44.5 478.5,44 480,44 C482,44 484,44.5 485.5,46 C487.5,47.5 488,50 488,53.5 L488,68 Z" id="Path" fill="#FFFFFF"></path>
            <path d="M522,49 L516.5,49 L516.5,60 C516.5,63 517.5,64 519.5,64 C520.5,64 521,64 522,64 L522,68 C521,68.5 519.5,68.5 518,68.5 C516,68.5 514.5,68 513.5,66.5 C512.5,65.5 512,63 512,60.5 L512,49 L508.5,49 L508.5,45 L512,45 L512,41 L517,39.5 L517,45 L522.5,45 L522.5,49 L522,49 Z" id="Path" fill="#FFFFFF"></path>
            <path d="M549,68 L544,68 L544,55 C544,51 542.5,49 539.5,49 C537,49 535.5,50 534.5,52.5 C534.5,53 534.5,53.5 534.5,54.5 L534.5,68 L529.5,68 L529.5,34.5 L534.5,34.5 L534.5,48.5 L534.5,48.5 C536,46 538.5,44.5 541.5,44.5 C543.5,44.5 545.5,45 546.5,46.5 C548,48 549,51 549,54 L549,68 Z" id="Path" fill="#FFFFFF"></path>
            <path d="M576.5,55.5 C576.5,56.5 576.5,57 576.5,58 L561.5,58 C561.5,60.5 562.5,62 563.5,63 C565,64 566.5,64.5 568.5,64.5 C571,64.5 573,64 574.5,63.5 L575.5,67 C573.5,68 571,68.5 568,68.5 C564.5,68.5 561.5,67.5 559.5,65.5 C557.5,63.5 556.5,60.5 556.5,57 C556.5,53.5 557.5,50.5 559.5,48.5 C561.5,46 564,45 567.5,45 C571,45 573.5,46 575,48.5 C576,50 576.5,52.5 576.5,55.5 Z M572,54 C572,52.5 571.5,51 571,50 C570,48.5 569,48 567,48 C565.5,48 564,48.5 563,50 C562,51 561.5,52.5 561.5,54 L572,54 Z" id="Shape" fill="#FFFFFF"></path>
        </g>
    </g>
</svg>