<svg width="386px" height="73px" viewBox="0 0 386 73" xmlns="http://www.w3.org/2000/svg"><g fill="none" fill-rule="evenodd"><path d="m369.82 62.866c-.614 2.867-1.843 6.962-4.403 6.962-3.174 0-3.891-3.379-3.891-10.03 0-8.703 2.15-15.256 8.293-17.508v20.58m-18.634-35.32c0 4.71 2.457 6.758 5.324 6.758 2.355 0 5.119-1.638 5.119-6.04 0-4.505-2.355-6.246-4.607-6.246-1.536 0-2.764.512-3.379 1.024 1.024-2.15 5.427-5.529 10.03-5.529 2.969 0 4.3.819 5.02 1.843.614.921 1.126 2.253 1.126 6.963v15.05c-13.822 2.764-19.864 9.112-19.864 18.327 0 7.577 3.276 12.491 11.57 12.491 5.324 0 7.474-2.253 8.805-7.372.204 2.662 1.126 4.506 2.56 5.734 1.126 1.024 2.867 1.638 5.119 1.638 3.584 0 5.938-.41 7.577-4.198l-.819-.41c-.512 1.126-1.126 1.741-1.843 1.741-1.024 0-1.331-.717-1.331-2.56v-33.788c0-11.06-2.764-16.792-15.358-16.792-9.317.001-15.05 5.632-15.05 11.365m-79.25 35.32c-.614 2.867-1.843 6.962-4.403 6.962-3.173 0-3.891-3.379-3.891-10.03 0-8.703 2.15-15.256 8.293-17.508v20.58m-18.634-35.32c0 4.71 2.457 6.758 5.324 6.758 2.355 0 5.119-1.638 5.119-6.04 0-4.505-2.355-6.246-4.607-6.246-1.536 0-2.764.512-3.379 1.024 1.024-2.15 5.427-5.529 10.03-5.529 2.969 0 4.3.819 5.02 1.843.614.921 1.126 2.253 1.126 6.963v15.05c-13.822 2.764-19.863 9.112-19.863 18.327 0 7.577 3.276 12.491 11.57 12.491 5.324 0 7.474-2.253 8.805-7.372.204 2.662 1.126 4.506 2.56 5.734 1.126 1.024 2.867 1.638 5.119 1.638 3.584 0 5.938-.41 7.577-4.198l-.819-.41c-.512 1.126-1.126 1.741-1.843 1.741-1.024 0-1.331-.717-1.331-2.56v-33.788c0-11.06-2.764-16.792-15.358-16.792-9.317.001-15.05 5.632-15.05 11.365m-195.56 35.32c-.614 2.867-1.843 6.963-4.403 6.963-3.174 0-3.891-3.379-3.891-10.03 0-8.703 2.15-15.256 8.293-17.508v20.58m310.13-56.52c0 3.788 2.048 5.938 5.427 5.938 3.276 0 5.427-2.15 5.427-5.938 0-3.584-2.15-5.836-5.427-5.836-3.379 0-5.427 2.253-5.427 5.836m-14.03 0c0 3.788 2.048 5.938 5.529 5.938 3.379 0 5.529-2.15 5.529-5.938 0-3.584-2.15-5.836-5.529-5.836-3.481 0-5.529 2.253-5.529 5.836m-120.1 65.22h16.689v-.819c-1.433 0-2.764-.308-2.764-3.584v-66.859c0 0-11.365.512-15.87.512v.82c2.253 0 4.505 1.843 4.505 4.812v60.716c0 3.276-1.126 3.584-2.56 3.584v.819m-3.174-10.239c-1.946 5.119-4.812 8.805-9.829 8.805-7.167 0-8.499-6.143-8.499-18.12v-5.938h4.3c7.986 0 15.05-2.457 15.05-14.13 0-5.836-.717-15.768-14.13-15.768-10.853 0-17.815 7.679-17.815 27.849 0 19.966 5.938 28.16 18.327 28.16 8.703 0 11.775-4.71 13.822-10.444l-1.228-.409m-18.327-27.747c0-13.515 2.253-16.586 4.607-16.586 2.97 0 3.276 5.734 3.276 12.184 0 10.853-1.126 15.972-5.119 15.972h-2.764v-11.57m-173.14-6.04c0 4.71 2.457 6.758 5.324 6.758 2.355 0 5.119-1.638 5.119-6.04 0-4.505-2.355-6.246-4.607-6.246-1.536 0-2.764.512-3.379 1.024 1.024-2.15 5.324-5.529 10.03-5.529 2.969 0 4.3.819 5.02 1.843.614.921 1.126 2.253 1.126 6.963v15.05c-13.822 2.764-19.863 9.112-19.863 18.327 0 7.577 3.276 12.491 11.57 12.491 5.324 0 7.474-2.253 8.805-7.372.205 2.662 1.126 4.506 2.56 5.734 1.126 1.024 2.867 1.638 5.119 1.638 3.584 0 5.938-.41 7.577-4.198l-.819-.41c-.512 1.126-1.126 1.741-1.843 1.741-1.024 0-1.331-.717-1.331-2.56v-33.788c0-11.06-2.764-16.792-15.358-16.792-9.317.001-15.05 5.632-15.05 11.365m249.11-10.341v.82c1.945 0 3.072 1.638 3.072 6.04v43.11c0 3.276-1.024 3.584-2.56 3.584v.819h17.1v-.819c-1.536 0-2.56-.308-2.56-3.584v-41.876c.204-1.434 2.56-6.348 6.245-6.348 1.741 0 2.97 1.126 2.97 4.505v43.719c0 3.276-1.126 3.584-2.56 3.584v.819h17.1v-.819c-1.024 0-2.56-.308-2.56-3.584v-42.18c.614-1.843 2.764-6.04 6.246-6.04 1.741 0 2.969.819 2.969 4.505v43.719c0 3.276-1.024 3.584-2.56 3.584v.819h17.1v-.819c-1.024 0-2.56-.308-2.56-3.584v-40.03c0-9.215-4.607-10.955-10.853-10.955-5.324 0-9.522 3.482-10.648 6.655-1.332-4.095-4.607-6.655-10.546-6.655-3.788 0-8.395 1.946-10.443 6.143 0-2.252.204-5.119.204-5.119h-15.15m-136.79.819c1.741 0 2.764 1.024 2.764 3.276v41.06c0 2.355-2.048 7.987-5.324 7.987-2.662 0-3.891-1.638-3.891-6.86v-46.28h-14.232v.82c1.741 0 2.457.921 2.457 3.276v39.21c0 8.907 4.812 11.672 11.877 11.672 6.45 0 8.703-2.662 9.829-8.191 0 0 0 4.3-.205 7.577l13.618-.307v-.819c-1.843 0-2.56-.204-2.56-3.173v-50.07h-14.334v.819m118.56-11.672c0 3.788 2.048 5.938 5.427 5.938 3.276 0 5.427-2.15 5.427-5.938 0-3.584-2.15-5.836-5.427-5.836-3.379 0-5.427 2.253-5.427 5.836m-14.03 0c0 3.788 2.048 5.938 5.529 5.938 3.379 0 5.529-2.15 5.529-5.938 0-3.584-2.15-5.836-5.529-5.836-3.481 0-5.529 2.253-5.529 5.836m-145.19 10.648c4.3 0 4.71 3.276 4.71 27.24 0 21.603-.102 27.13-4.403 27.13-4.607 0-5.427-5.324-5.427-27.13 0-21.297 1.126-27.24 5.119-27.24m-36.552 54.57h16.484v-.819c-1.433 0-2.662-1.126-2.662-4.915v-65.53c0 0-11.365.512-15.87.512v.82c2.253 0 4.505 1.843 4.505 4.812v59.38c0 3.788-1.024 4.915-2.457 4.915v.819m99.11-2.662c.717 0 1.638.82 3.072 1.536 1.945.922 4.095 1.741 7.884 1.741 8.191 0 13.11-4.505 13.11-15.665 0-7.987-1.843-12.491-8.395-18.532l-6.962-6.348c-3.891-3.584-5.119-5.119-5.119-8.498 0-3.788 2.662-6.143 6.758-6.143 4.71 0 7.679 4.71 9.317 9.931.717 2.253 1.331 4.915 1.638 6.553h.819v-17.508h-.819c-.205 1.331-1.024 1.74-1.945 1.74-.921 0-2.457-.41-3.686-.716-1.638-.41-3.174-.82-5.324-.82-8.601 0-13 5.631-13 14.744 0 7.269 3.481 13.11 8.805 18.02l6.04 5.427c3.993 3.584 5.836 5.529 5.836 9.829 0 3.993-1.536 7.06-6.655 7.06-7.06 0-11.467-9.829-12.594-16.484l-.205-1.229h-.922v18.02h.819c.205-2.15.921-2.662 1.536-2.662m-80.58-24.675c0 23.344 9.42 27.952 17.815 27.952 9.624 0 17.713-7.167 17.713-27.952 0-22.12-7.06-28.05-17.713-28.05-9.01.001-17.815 6.04-17.815 28.05m-91.64-12.286c2.457-16.587 5.427-29.385 14.539-29.385h1.741v60.2c0 6.86-1.433 7.884-9.829 7.884v.921h30.511v-1.024c-7.577 0-9.01-.921-9.01-7.781v-60.2h1.638c7.474 0 10.136 3.993 12.594 14.744l1.126-.716v-15.15h-43.11l-1.331 30.511h1.126" fill="#ed1c24"/></g></svg>