<?xml version="1.0" encoding="UTF-8"?>
<svg width="150px" height="50px" viewBox="0 0 150 50" version="1.1" xmlns="http://www.w3.org/2000/svg" xmlns:xlink="http://www.w3.org/1999/xlink">
    <!-- Generator: Sketch 61.1 (89650) - https://sketch.com -->
    <title>Kiuas_logo</title>
    <desc>Created with Sketch.</desc>
    <g id="Page-1" stroke="none" stroke-width="1" fill="none" fill-rule="evenodd">
        <g id="Kiuas_logo" transform="translate(2.000000, 2.000000)">
            <polygon id="Path" fill="#000000" points="31.7720142 12.3953148 35.6241372 12.3953148 26.2849822 22.6135746 37.9207279 33.9261661 33.7134491 33.9261661 22.7086384 23.2918845 22.7086384 33.9261661 19.626438 33.9261661 19.626438 12.3953148 22.7086384 12.3953148 22.7086384 22.2439866 31.7720142 12.3953148"></polygon>
            <rect id="Rectangle" fill="#000000" x="46.6377327" y="12.3953148" width="3.08251412" height="21.5308513"></rect>
            <polyline id="Path" fill="#000000" points="75.7915708 22.9031583 75.7915708 12.3953148 78.8894583 12.3953148 78.8894583 22.9031583"></polyline>
            <path d="M75.7915708,25.0993516 L78.8894583,26.3543192 L78.8894583,24.617444 C78.8894583,26.2718051 78.7683539,27.5201841 78.5274001,28.362581 C78.2858189,29.204978 77.9877641,29.9065049 77.6335495,30.4662205 C77.2790211,31.0265635 76.8448023,31.5276093 76.3308931,31.9690441 C74.6253922,33.4386112 72.3953148,34.1730809 69.6419159,34.1730809 C66.8370634,34.1730809 64.5869065,33.443631 62.8914453,31.9844175 C62.3772223,31.5323154 61.943631,31.0265635 61.5891027,30.4662205 C61.2345744,29.9065049 60.9418532,29.2206651 60.7106254,28.4087011 C60.4793976,27.5973646 60.3639406,26.322945 60.3639406,24.5866973 L60.3639406,12.3953148 L63.4618281,12.3953148 L63.4618281,24.617444 C63.4618281,26.6417068 63.6927421,28.0491529 64.1551977,28.84041 C64.6176532,29.631667 65.3210625,30.2660531 66.2666806,30.743882 C67.2119849,31.2217109 68.3263962,31.4604685 69.6111692,31.4604685 C71.439657,31.4604685 72.929931,30.9826396 74.0807362,30.0272955 C74.6868856,29.5133863 75.1233006,28.907237 75.3909224,28.2085338 C75.6579168,27.5098306 75.7915708,26.3129052 75.7915708,24.617444 L75.7915708,25.0993516 L75.7915708,25.0993516 Z" id="Path" fill="#000000"></path>
            <path d="M89.5190337,26.417695 L86.3122778,33.9264798 L89.4798159,33.9264798 L92.1704664,27.5455972 L92.9055637,25.8968835 C91.7782891,26.1704664 90.6626229,26.4045179 89.5190337,26.417695" id="Path" fill="#000000"></path>
            <path d="M94.1617862,22.9031583 C94.1674336,22.9031583 94.1721397,22.904727 94.1777871,22.904727 L96.6152479,17.0035557 L104.225999,33.9264798 L107.380987,33.9264798 L97.7268354,12.2720142 L95.5601339,12.2720142 L91.0143275,22.9163355" id="Path" fill="#000000"></path>
            <path d="M121.384229,24.9051454 L119.041519,23.4820121 C117.572265,22.5847103 116.526877,21.7021544 115.905355,20.8337168 C115.283518,19.965593 114.9726,18.966325 114.9726,17.835913 C114.9726,16.1404518 115.560866,14.7637524 116.737398,13.7055009 C117.91393,12.6475633 119.442481,12.117967 121.322736,12.117967 C123.120791,12.117967 124.769818,12.6227777 126.269818,13.6323991 L126.269818,17.130935 C124.718364,15.6384648 123.048944,14.8920728 121.260929,14.8920728 C120.253817,14.8920728 119.426794,15.125183 118.779544,15.5910897 C118.132294,16.056369 117.808827,16.6527923 117.808827,17.3791048 C117.808827,18.0241581 118.047584,18.6281113 118.523844,19.1909642 C119.001046,19.7541309 119.767831,20.3449069 120.8242,20.9639197 L123.178519,22.3572474 C125.804539,23.9256432 127.117549,25.9222966 127.117549,28.3472077 C127.117549,30.0734156 126.539636,31.4758419 125.383811,32.5548003 C124.227672,33.6337586 122.725162,34.1730809 120.875654,34.1730809 C118.748797,34.1730809 116.812069,33.5195566 115.065154,32.2118804 L115.065154,28.2973227 C116.729868,30.4062958 118.656243,31.4604685 120.844907,31.4604685 C121.810604,31.4604685 122.614725,31.1915917 123.256955,30.6544656 C123.899184,30.116712 124.220142,29.4437356 124.220142,28.6345953 C124.220142,27.3240954 123.274838,26.0813637 121.384229,24.9051454" id="Path" fill="#000000"></path>
            <rect id="Rectangle" stroke="#000000" stroke-width="3.13741895" x="0.156870948" y="0.156870948" width="145.889981" height="45.8063167"></rect>
            <polygon id="Path" fill="#000000" points="95.1864673 27.7532943 69.6507007 27.7532943 72.3517047 24.6648191 97.8874712 24.6648191 95.1864673 27.7532943"></polygon>
        </g>
    </g>
</svg>