<?xml version="1.0" encoding="UTF-8"?>
<svg width="208px" height="28px" viewBox="0 0 208 28" version="1.1" xmlns="http://www.w3.org/2000/svg" xmlns:xlink="http://www.w3.org/1999/xlink">
    <!-- Generator: Sketch 64 (93537) - https://sketch.com -->
    <title>mediuutiset</title>
    <desc>Created with Sketch.</desc>
    <g id="Page-1" stroke="none" stroke-width="1" fill="none" fill-rule="evenodd">
        <g id="mediuutiset" fill="#56C5D0" fill-rule="nonzero">
            <polygon id="Path" points="20.65375 22.12625 22.63 22.12625 22.63 7.40125 18.25125 27.2025 11.74125 27.2025 7.40125 7.75 7.40125 22.0875 9.3775 22.0875 9.3775 27.2025 0.0775 27.2025 0.0775 22.0875 1.7825 22.0875 1.7825 6.62625 0.0775 6.62625 0.0775 1.12375 12.555 1.12375 15.8875 17.5925 19.2975 1.12375 31.6975 1.12375 31.6975 6.62625 29.9925 6.62625 29.9925 22.0875 31.6975 22.0875 31.6975 27.2025 20.65375 27.2025"></polygon>
            <path d="M32.20125,17.63125 L32.20125,17.5925 C32.20125,11.04375 36.61875,7.55625 42.12125,7.55625 C47.8175,7.55625 51.0725,10.695 51.0725,15.655 C51.0725,17.2825 50.685,18.32875 50.33625,19.02625 L39.71875,19.02625 C39.99,21.7 41.73375,22.165 44.795,22.165 C47.08125,22.165 48.78625,21.7 50.02625,21.19625 L50.02625,24.91625 C49.09625,26.23375 46.4225,27.62875 42.5475,27.62875 C35.76625,27.6675 32.20125,24.14125 32.20125,17.63125 Z M39.68,15.965 L44.485,15.965 L44.485,15.5775 C44.485,13.0975 43.90375,12.05125 42.315,12.05125 C40.72625,12.05125 39.7575,13.13625 39.68,15.965 Z" id="Shape"></path>
            <path d="M63.7825,1.43375 L72.695,1.43375 L72.695,22.12625 L74.20625,22.12625 L74.20625,27.24125 L66.68875,27.24125 C66.68875,27.24125 65.68125,25.45875 65.52625,23.05625 C64.75125,25.07125 63.27875,27.70625 59.2875,27.70625 C54.3275,27.70625 51.77,23.52125 51.77,17.86375 L51.77,17.825 C51.77,11.19875 55.025,7.595 59.79125,7.595 C63.20125,7.595 64.75125,9.88125 65.29375,11.74125 L65.29375,6.54875 L63.7825,6.54875 L63.7825,1.43375 L63.7825,1.43375 Z M65.3325,18.0575 L65.3325,17.36 C65.3325,14.06625 64.2475,12.51625 62.3875,12.51625 C60.5275,12.51625 59.32625,14.22125 59.32625,16.85625 L59.32625,18.09625 C59.32625,20.8475 60.41125,22.59125 62.3875,22.59125 C64.20875,22.63 65.3325,20.6925 65.3325,18.0575 Z" id="Shape"></path>
            <polygon id="Path" points="74.6325 8.02125 83.66125 8.02125 83.66125 22.12625 85.28875 22.12625 85.28875 27.24125 76.26 27.24125 76.26 22.12625 76.26 22.12625 76.26 12.90375 74.6325 12.90375"></polygon>
            <path d="M76.415,3.60375 C76.415,1.6275 78.00375,0 79.94125,0 C81.87875,0 83.4675,1.6275 83.4675,3.60375 C83.4675,5.58 81.87875,7.16875 79.94125,7.16875 C78.00375,7.16875 76.415,5.58 76.415,3.60375 Z" id="Path"></path>
            <path d="M147.405,3.60375 C147.405,1.6275 148.99375,0 150.93125,0 C152.86875,0 154.4575,1.6275 154.4575,3.60375 C154.4575,5.58 152.86875,7.16875 150.93125,7.16875 C148.99375,7.16875 147.405,5.58 147.405,3.60375 Z" id="Path"></path>
            <path d="M99.51,23.05625 L99.51,22.8625 C98.46375,25.8075 96.565,27.70625 93.11625,27.70625 C89.0475,27.70625 86.8,25.45875 86.8,20.615 L86.8,12.90375 L85.28875,12.90375 L85.28875,7.9825 L94.20125,7.9825 L94.20125,19.64625 C94.20125,21.73875 94.89875,22.7075 96.44875,22.7075 C98.15375,22.7075 99.1225,21.235 99.1225,17.94125 L99.1225,12.865 L96.72,12.865 L96.72,7.94375 L106.5625,7.94375 L106.5625,22.0875 L108.07375,22.0875 L108.07375,27.2025 L100.5175,27.2025 C100.5175,27.24125 99.51,25.1875 99.51,23.05625 Z" id="Path"></path>
            <path d="M122.48875,23.05625 L122.48875,22.8625 C121.4425,25.8075 119.54375,27.70625 116.095,27.70625 C112.02625,27.70625 109.77875,25.45875 109.77875,20.615 L109.77875,12.90375 L108.2675,12.90375 L108.2675,7.9825 L117.18,7.9825 L117.18,19.64625 C117.18,21.73875 117.8775,22.7075 119.4275,22.7075 C121.1325,22.7075 122.10125,21.235 122.10125,17.94125 L122.10125,12.865 L119.7375,12.865 L119.7375,7.94375 L129.54125,7.94375 L129.54125,22.0875 L131.0525,22.0875 L131.0525,27.2025 L123.49625,27.2025 C123.49625,27.24125 122.48875,25.1875 122.48875,23.05625 Z" id="Path"></path>
            <path d="M132.87375,21.4675 L132.87375,12.90375 L131.13,12.90375 L131.13,7.9825 C134.57875,7.47875 135.43125,5.9675 136.05125,3.1 L140.275,3.1 L140.275,7.9825 L144.2275,7.9825 L144.2275,12.90375 L140.275,12.90375 L140.275,19.49125 C140.275,21.50625 141.05,22.3975 143.33625,22.3975 C144.11125,22.3975 144.615,22.2425 145.19625,22.04875 L145.19625,25.575 C144.42125,26.62125 142.755,27.70625 139.53875,27.70625 C136.12875,27.745 132.87375,26.195 132.87375,21.4675 Z" id="Path"></path>
            <path d="M195.5325,21.4675 L195.5325,12.90375 L193.78875,12.90375 L193.78875,7.9825 C197.2375,7.47875 198.09,5.9675 198.71,3.1 L202.895,3.1 L202.895,7.9825 L206.8475,7.9825 L206.8475,12.90375 L202.895,12.90375 L202.895,19.49125 C202.895,21.50625 203.67,22.3975 205.95625,22.3975 C206.73125,22.3975 207.235,22.2425 207.81625,22.04875 L207.81625,25.575 C207.04125,26.62125 205.375,27.70625 202.15875,27.70625 C198.7875,27.745 195.5325,26.195 195.5325,21.4675 Z" id="Path"></path>
            <polygon id="Path" points="145.58375 8.02125 154.6125 8.02125 154.6125 22.12625 156.27875 22.12625 156.27875 27.24125 147.25 27.24125 147.25 22.12625 147.25 12.90375 145.58375 12.90375"></polygon>
            <path d="M167.555,11.81875 C166.935,11.74125 166.315,11.7025 165.695,11.7025 C163.87375,11.7025 163.37,12.43875 163.37,13.05875 C163.37,13.795 163.79625,14.26 164.5325,14.37625 C166.04375,14.60875 169.3375,14.68625 171.12,15.655 C173.3675,16.85625 173.8325,18.56125 173.8325,20.57625 C173.8325,25.38125 170.655,27.8225 165.075,27.8225 C161.5875,27.8225 158.83625,27.00875 157.5575,25.76875 L157.5575,22.165 L163.215,22.165 L163.215,23.36625 C163.7575,23.405 164.33875,23.44375 164.8425,23.44375 C166.7025,23.4825 167.4775,22.94 167.4775,22.01 C167.4775,21.19625 166.78,20.88625 166.0825,20.77 C164.80375,20.5375 162.16875,20.57625 160.115,19.53 C158.13875,18.445 157.5575,16.39125 157.5575,14.415 C157.5575,9.02875 161.665,7.47875 165.9275,7.47875 C169.37625,7.47875 171.9725,8.37 173.09625,9.3775 L173.09625,12.865 L167.555,12.865 L167.555,11.81875 Z" id="Path"></path>
            <path d="M174.4525,17.63125 L174.4525,17.5925 C174.4525,11.04375 178.87,7.55625 184.3725,7.55625 C190.06875,7.55625 193.32375,10.695 193.32375,15.655 C193.32375,17.2825 192.93625,18.32875 192.5875,19.02625 L181.97,19.02625 C182.24125,21.7 183.985,22.165 187.04625,22.165 C189.3325,22.165 191.0375,21.7 192.2775,21.19625 L192.2775,24.91625 C191.3475,26.23375 188.67375,27.62875 184.79875,27.62875 C178.0175,27.6675 174.4525,24.14125 174.4525,17.63125 Z M181.93125,15.965 L186.73625,15.965 L186.73625,15.5775 C186.73625,13.0975 186.155,12.05125 184.56625,12.05125 C182.93875,12.0125 182.00875,13.13625 181.93125,15.965 Z" id="Shape"></path>
        </g>
    </g>
</svg>