<?xml version="1.0" encoding="UTF-8" standalone="no"?><!DOCTYPE svg PUBLIC "-//W3C//DTD SVG 1.1//EN" "http://www.w3.org/Graphics/SVG/1.1/DTD/svg11.dtd"><svg width="100%" height="100%" viewBox="0 0 1167 564" version="1.1" xmlns="http://www.w3.org/2000/svg" xmlns:xlink="http://www.w3.org/1999/xlink" xml:space="preserve" xmlns:serif="http://www.serif.com/" style="fill-rule:evenodd;clip-rule:evenodd;stroke-linejoin:round;stroke-miterlimit:2;"><g id="Layer-1" serif:id="Layer 1"><g opacity="0.8"><path d="M254,319l0,150.471l230.886,-126.275l10.613,-24.196l-241.499,0Zm0,-93l276.844,0l66.924,-171.226l-284.125,10.083l-59.643,71.067l0,90.076Zm-87,292.359l-6.249,3.5l-82.111,-171.759l26.681,-31.1l61.679,0l0,199.359Z" style="fill:url(#_Linear1);fill-rule:nonzero;"/></g><g opacity="0.8"><path d="M167,97.805l-0.444,0.205l0.444,3.095l0,-3.3Zm87,221.195l0,137.726l191.45,102.991l89.523,-240.717l-280.973,0Zm0,-262.012l113.157,-52.119l135.918,221.131l-249.075,0l0,-169.012Z" style="fill:url(#_Linear2);fill-rule:nonzero;"/></g><g opacity="0.8"><path d="M167,319l-134.494,0l-26.334,34.158l160.828,19.411l0,-53.569Zm87,0l0,64.791l60.16,8.544l151.983,-73.335l-212.143,0Zm0,-93l374.09,0l-109.689,-115.165l-264.401,47.144l0,68.021Zm-153.892,0l35.046,-46.824l31.846,-5.462l0,52.286l-66.892,0Z" style="fill:url(#_Linear3);fill-rule:nonzero;"/></g><g opacity="0.8"><path d="M254,319l0,57.897l319.687,51.543l11.866,-109.44l-331.553,0Zm0,-93l340.649,0l2.104,-20.709l-304.098,-200.312l-38.655,18.234l0,202.787Zm-100.6,0l-73.515,-119.002l87.115,-41.497l0,160.499l-13.6,0Z" style="fill:url(#_Linear4);fill-rule:nonzero;"/></g><g opacity="0.8"><path d="M167,473.369l0,-154.369l-35.153,0l35.153,154.369Zm87,33.722l209.875,-70.195l47.234,-117.896l-257.109,0l0,188.091Zm334.27,-387.794l-41.779,106.703l-292.491,0l0,-85.713l124.66,-124.555l209.61,103.565Z" style="fill:url(#_Linear5);fill-rule:nonzero;"/></g><path d="M729.909,315.205l-24.699,-49.616l-10.998,49.616l-15.943,0l16.505,-74.876l16.389,0l24.024,47.713l10.659,-47.713l15.942,0l-16.5,74.876l-15.379,0Z" style="fill:#231f20;fill-rule:nonzero;"/><path d="M825.101,273.671c0,-12.573 -9.092,-20.432 -21.104,-20.432c-14.482,0 -25.82,12.684 -25.82,28.738c0,12.569 8.98,20.435 20.992,20.435c14.482,0 25.932,-12.688 25.932,-28.741m-63.647,9.315c0,-24.471 18.852,-43.892 43.557,-43.892c20.652,0 36.823,12.91 36.823,33.453c0,24.474 -18.868,44.006 -43.562,44.006c-20.77,0 -36.818,-13.026 -36.818,-33.567" style="fill:#231f20;fill-rule:nonzero;"/><path d="M883.139,274.569c8.307,0 13.361,-4.828 13.361,-11.566c0,-5.048 -4.609,-8.641 -9.548,-8.641l-16.053,0l-4.488,20.207l16.728,0Zm1.344,40.636l-8.868,-26.6l-12.347,0l-5.837,26.6l-15.942,0l16.505,-74.876l31.986,0c12.129,0 23.132,8.086 23.132,21.105c0,13.472 -9.208,23.802 -21.327,26.045l10.441,27.726l-17.743,0Z" style="fill:#231f20;fill-rule:nonzero;"/><path d="M932.756,301.17l13.244,0c18.072,0 29.075,-12.682 29.075,-27.61c0,-10.889 -7.859,-19.198 -18.863,-19.198l-13.133,0l-10.323,46.808Zm-19.086,14.035l16.5,-74.876l28.963,0c16.617,0 32.447,12.799 32.447,32.105c0,19.76 -13.25,42.771 -48.501,42.771l-29.409,0Z" style="fill:#231f20;fill-rule:nonzero;"/><path d="M992.022,315.205l16.5,-74.876l15.941,0l-16.504,74.876l-15.937,0Z" style="fill:#231f20;fill-rule:nonzero;"/><path d="M1024.12,282.986c0,-26.492 20.318,-43.892 43.558,-43.892c18.299,0 28.846,9.878 33.233,21.218l-15.273,5.165c-2.921,-7.974 -10.101,-12.238 -18.747,-12.238c-14.147,0 -26.042,12.238 -26.042,28.738c0,11.672 8.082,20.435 20.987,20.435c6.404,0 13.361,-3.372 17.631,-8.646l12.341,8.306c-8.64,11.003 -21.104,14.481 -30.865,14.481c-20.657,0 -36.823,-13.132 -36.823,-33.567" style="fill:#231f20;fill-rule:nonzero;"/><path d="M676.809,413.152l9.883,-11.784c5.162,6.957 14.923,11.673 25.258,11.673c8.082,0 11.332,-4.599 11.332,-8.422c0,-10.547 -36.478,-8.529 -36.478,-30.42c0,-12.352 10.886,-24.364 29.298,-24.364c11.9,0 23.122,4.381 29.855,12.129l-9.983,11.45c-5.618,-6.511 -14.71,-9.538 -22.347,-9.538c-5.719,0 -9.984,3.362 -9.984,7.403c0,9.771 36.59,8.533 36.59,30.195c0,13.701 -10.998,25.714 -29.522,25.714c-14.704,0 -27.619,-5.724 -33.902,-14.036" style="fill:#231f20;fill-rule:nonzero;"/><path d="M760.668,425.84l13.467,-60.849l-21.89,0l3.032,-14.03l59.717,0l-3.026,14.03l-21.891,0l-13.355,60.849l-16.054,0Z" style="fill:#231f20;fill-rule:nonzero;"/><path d="M847.441,366.903l-18.751,32.214l23.351,0l-4.6,-32.214Zm7.743,58.937l-1.912,-12.688l-32.107,0l-7.403,12.688l-18.974,0l45.356,-74.879l19.979,0l12.347,74.879l-17.286,0Z" style="fill:#231f20;fill-rule:nonzero;"/><path d="M918.837,385.203c8.306,0 13.355,-4.832 13.355,-11.566c0,-5.05 -4.604,-8.646 -9.542,-8.646l-16.054,0l-4.488,20.212l16.729,0Zm1.338,40.637l-8.863,-26.607l-12.347,0l-5.842,26.607l-15.942,0l16.505,-74.879l31.991,0c12.129,0 23.127,8.082 23.127,21.103c0,13.474 -9.203,23.803 -21.332,26.043l10.446,27.733l-17.743,0Z" style="fill:#231f20;fill-rule:nonzero;"/><path d="M965.527,425.84l13.473,-60.849l-21.891,0l3.033,-14.03l59.722,0l-3.038,14.03l-21.89,0l-13.35,60.849l-16.059,0Z" style="fill:#231f20;fill-rule:nonzero;"/><path d="M1017.39,401.028c0,-1.455 0.34,-3.93 0.562,-5.161l9.878,-44.906l16.165,0l-9.771,44.566c-0.223,0.674 -0.446,2.135 -0.446,3.706c0.112,7.521 5.613,13.919 16.166,13.919c11.449,0 17.062,-7.185 19.425,-17.625l9.761,-44.566l16.277,0l-9.989,44.906c-3.929,18.182 -13.361,31.321 -35.474,31.321c-21.445,0 -32.554,-10.557 -32.554,-26.16" style="fill:#231f20;fill-rule:nonzero;"/><path d="M1133.13,385.086c7.967,0 13.356,-5.05 13.356,-11.672c0,-4.939 -3.818,-8.423 -9.32,-8.423l-16.276,0l-4.488,20.095l16.728,0Zm-41.65,40.754l16.5,-74.879l34.242,0c12.012,0 20.876,9.432 20.876,20.764c0,11.121 -7.515,27.392 -30.982,27.392l-18.746,0l-5.948,26.723l-15.942,0Z" style="fill:#231f20;fill-rule:nonzero;"/><path d="M723.059,477.532l-18.746,32.219l23.35,0l-4.604,-32.219Zm7.748,58.937l-1.906,-12.682l-32.108,0l-7.408,12.682l-18.974,0l45.351,-74.879l19.984,0l12.346,74.879l-17.285,0Z" style="fill:#231f20;fill-rule:nonzero;"/><path d="M807.252,536.469l-1.795,-51.417l-24.365,51.417l-16.951,0l-4.939,-74.879l17.514,0l1.126,54.114l26.149,-54.114l12.464,0l2.246,54.114l25.034,-54.114l18.3,0l-37.832,74.879l-16.951,0Z" style="fill:#231f20;fill-rule:nonzero;"/><path d="M893.691,477.532l-18.746,32.219l23.35,0l-4.604,-32.219Zm7.748,58.937l-1.912,-12.682l-32.107,0l-7.409,12.682l-18.974,0l45.357,-74.879l19.984,0l12.346,74.879l-17.285,0Z" style="fill:#231f20;fill-rule:nonzero;"/><path d="M965.081,495.832c8.306,0 13.361,-4.827 13.361,-11.566c0,-5.045 -4.604,-8.64 -9.543,-8.64l-16.053,0l-4.494,20.206l16.729,0Zm1.349,40.637l-8.87,-26.606l-12.346,0l-5.836,26.606l-15.943,0l16.5,-74.879l31.997,0c12.118,0 23.122,8.083 23.122,21.104c0,13.478 -9.203,23.802 -21.327,26.048l10.44,27.727l-17.737,0Z" style="fill:#231f20;fill-rule:nonzero;"/><path d="M1014.7,522.438l13.245,0c18.071,0 29.069,-12.687 29.069,-27.614c0,-10.887 -7.854,-19.198 -18.852,-19.198l-13.138,0l-10.324,46.811Zm-19.086,14.032l16.5,-74.88l28.964,0c16.616,0 32.447,12.799 32.447,32.108c0,19.762 -13.25,42.772 -48.501,42.772l-29.41,0Z" style="fill:#231f20;fill-rule:nonzero;"/><path d="M1074.75,523.787l9.878,-11.789c5.161,6.956 14.933,11.678 25.257,11.678c8.082,0 11.343,-4.605 11.343,-8.423c0,-10.552 -36.484,-8.534 -36.484,-30.424c0,-12.347 10.887,-24.355 29.299,-24.355c11.895,0 23.122,4.376 29.861,12.12l-9.995,11.449c-5.613,-6.511 -14.71,-9.538 -22.336,-9.538c-5.729,0 -9.994,3.367 -9.994,7.408c0,9.767 36.601,8.529 36.601,30.201c0,13.691 -11.004,25.703 -29.528,25.703c-14.705,0 -27.614,-5.724 -33.902,-14.03" style="fill:#231f20;fill-rule:nonzero;"/></g><defs><linearGradient id="_Linear1" x1="0" y1="0" x2="1" y2="0" gradientUnits="userSpaceOnUse" gradientTransform="matrix(-301.695,-174.184,174.184,-301.695,482.242,347.775)"><stop offset="0" style="stop-color:#fff;stop-opacity:1"/><stop offset="1" style="stop-color:#d71921;stop-opacity:1"/></linearGradient><linearGradient id="_Linear2" x1="0" y1="0" x2="1" y2="0" gradientUnits="userSpaceOnUse" gradientTransform="matrix(-370.301,-370.301,370.301,-370.301,542.475,462.693)"><stop offset="0" style="stop-color:#26247b;stop-opacity:1"/><stop offset="1" style="stop-color:#d52b27;stop-opacity:1"/></linearGradient><linearGradient id="_Linear3" x1="0" y1="0" x2="1" y2="0" gradientUnits="userSpaceOnUse" gradientTransform="matrix(-621.917,5.44e-05,-5.44e-05,-621.917,628.09,251.585)"><stop offset="0" style="stop-color:#211d70;stop-opacity:1"/><stop offset="1" style="stop-color:#b41218;stop-opacity:1"/></linearGradient><linearGradient id="_Linear4" x1="0" y1="0" x2="1" y2="0" gradientUnits="userSpaceOnUse" gradientTransform="matrix(-1.85e-05,-423.461,423.461,-1.85e-05,338.319,428.44)"><stop offset="0" style="stop-color:#193887;stop-opacity:1"/><stop offset="1" style="stop-color:#fff;stop-opacity:1"/></linearGradient><linearGradient id="_Linear5" x1="0" y1="0" x2="1" y2="0" gradientUnits="userSpaceOnUse" gradientTransform="matrix(387.671,-387.671,387.671,387.671,170.581,476.949)"><stop offset="0" style="stop-color:#efd800;stop-opacity:1"/><stop offset="1" style="stop-color:#0076a2;stop-opacity:1"/></linearGradient></defs></svg>